<svg xmlns="http://www.w3.org/2000/svg" version="1.1" xmlns:xlink="http://www.w3.org/1999/xlink" width="2000" height="1500" viewBox="0 0 2000 1500"><rect width="2000" height="1500" x="0" y="0" id="background" stroke="transparent" fill="#000000"></rect><svg xml:space="preserve" width="1500" height="1125" data-version="2" data-id="lg_F4TcUP2S5DJN1EIxdg" viewBox="0 0 563 304" x="250" y="187.5"><rect width="100%" height="100%" fill="transparent"></rect><path fill="#5acce6" d="M277.013 38.962c45.042 0 77.94-8.084 77.94-18.057 0-9.97-32.898-18.058-77.94-18.058-45.042 0-77.939 8.088-77.939 18.058 0 9.973 32.897 18.057 77.94 18.057m57.359 72a30.849 30.849 0 0 1 21.385 8.602c.296-.25.852-.506.852-.755V79.518c-14.45 7.828-47.328 11.88-79.47 11.88s-65.022-4.052-79.471-11.88v39.29c3.612 6.091 35.083 13.54 79.467 13.54 10.277 0 19.672-.412 28.266-1.102 4.36-11.83 15.627-20.283 28.97-20.283m-30.967 30.968c0-1.383.126-2.734.303-4.071-8.662.632-17.567.96-26.572.96-32.142-.003-65.018-4.052-79.467-11.88v30.94c0 .238-.076.476-.076.718s.076.484.076.723v1.65h-.239c4.841 7.225 36.716 16.079 79.583 16.079 19.366 0 36.759-1.998 50.352-4.573-13.723-3.176-23.96-15.858-23.96-30.546"></path><path fill="#5acce6" d="M356.61 71.386V31.983c-14.45 8.583-46.346 13.03-79.47 13.03s-68.634-4.447-79.471-13.03v39.403c3.612 6.087 35.086 13.536 79.47 13.536 44.392 0 72.246-7.449 79.471-13.536m-25.788 51.83c0-3.027 2.637-5.491 5.664-5.484 3.034-.007 5.671 2.457 5.671 5.491v21.215c0 3.027-2.637 5.49-5.671 5.49-3.02-.007-5.574-2.463-5.581-5.49z"></path><path fill="#5acce6" d="m355.237 135.685-18.928 32.8-18.928-32.8z"></path><path fill="#fff" d="M22.515 299.462q-6.04 0-9.01-1.58-2.97-1.59-4.95-5.74-1.38-3.17-2.33-10.35-.94-7.18-.94-18.66 0-8.02.35-15.35.35-7.32 1.04-11.28.79-5.05 2.62-7.23 1.84-2.18 4.61-2.18 2.47 0 3.91 2.18 1.43 2.18 2.03 5.89.59 3.71.59 8.17 0 12.08-.84 24.45-.84 12.38-2.33 22.77l-1.28-1.78q4.45-3.07 9.55-5.25 5.1-2.18 10-3.36 4.9-1.19 8.56-1.19 3.67 0 5.4 1.48 1.73 1.49 1.73 4.26 0 2.77-2.43 5.59-2.42 2.83-6.88 4.9-2.47 1.19-5.84 2.13-3.36.94-6.88 1.54-3.51.59-6.68.59"></path><rect width="45.94" height="72.37" x="-22.97" y="-36.19" fill="none" rx="0" ry="0" transform="translate(28.75 263.78)"></rect><path fill="#fff" d="M102.705 299.862q-3.37 0-4.6-2.63-1.24-2.62-1.44-8.36l.99.49q-5.54 10.79-20.99 10.79-7.03 0-11.68-2.52-4.65-2.52-6.88-6.73-2.23-4.21-2.23-9.16 0-8.51 5.94-13.51t15.74-5q6.44 0 11.19 1.88 4.75 1.88 8.12 5.25l-1.68-.2q-.7-10-4.31-14.31-3.61-4.3-10.25-4.3-3.86 0-7.12 1.18-3.27 1.19-5.99 2.43-2.73 1.24-5.1 1.24-2.38 0-3.72-1.59-1.33-1.58-1.33-4.06 0-3.56 3.41-6.73 3.42-3.17 9.06-5.15 5.65-1.98 12.28-1.98 8.02 0 13.76 3.86 5.74 3.87 8.71 11.29 2.58 6.34 3.66 14.16 1.09 7.82 1.09 16.73 0 6.73-.69 10.39-.69 3.67-2.13 5.1-1.43 1.44-3.81 1.44m-21.88-11.09q3.27 0 6.63-.94 3.37-.94 5.65-2.82 2.27-1.88 2.27-4.66 0-2.37-1.93-3.91-1.93-1.53-5.05-2.32-3.11-.79-6.68-.79-6.04 0-9.16 2.07-3.11 2.08-3.11 5.55 0 3.76 2.92 5.79 2.92 2.03 8.46 2.03"></path><rect width="53.46" height="63.26" x="-26.73" y="-31.63" fill="none" rx="0" ry="0" transform="translate(83.1 269.02)"></rect><path fill="#fff" d="M128.945 299.862q-2.18 0-3.52-1.49-1.34-1.48-2.13-4.25-.79-4.06-1.33-10.65-.55-6.58-.55-14.1 0-4.26.2-9.61.2-5.34.54-10.84.35-5.49.8-10.24.44-4.76.94-7.73.79-4.35 2.32-6.88 1.54-2.52 4.9-2.52 3.47 0 5.05 2.62 1.59 2.63 1.59 6.49 0 4.35-.65 10.29-.64 5.94-1.93 12.08l-1.98 2.38q1.09-4.16 3.57-7.63 2.47-3.46 6.23-5.49 3.77-2.03 8.72-2.03 9.7 0 15.49 6.88 5.79 6.88 5.79 21.43 0 10.2-3.02 17.03-3.02 6.83-8.22 10.25-5.19 3.41-11.83 3.41-6.23 0-10.74-3.66-4.5-3.66-5.79-10.59l1.39 1.09q-.4 7.12-1.93 10.44-1.54 3.32-3.91 3.32m18.11-12.08q4.95 0 8.71-4.46 3.77-4.45 3.77-13.95 0-7.92-2.92-12.87-2.92-4.95-9.76-4.95-5.54 0-8.91 4.4-3.36 4.41-3.36 13.32 0 8.11 3.36 13.31 3.37 5.2 9.11 5.2"></path><rect width="51.58" height="78.31" x="-25.79" y="-39.16" fill="none" rx="0" ry="0" transform="translate(147.7 261.2)"></rect><path fill="#fff" d="M210.715 299.662q-10.99 0-17.52-3.27-6.54-3.26-9.41-9.4-2.87-6.14-2.87-14.65 0-10.8 4.01-18.37t11.09-11.63q7.08-4.06 16.09-4.06 10.59 0 15.54 4.9 4.95 4.9 4.95 12.82 0 6.34-3.32 10.94-3.31 4.6-9.16 7.08-5.84 2.47-13.46 2.47-4.26 0-8.22-1.09-3.96-1.08-7.12-2.97l2.37-4.35q-.3 2.37-.3 4.75 0 6.93 4.36 9.95 4.36 3.02 12.38 3.02 6.23 0 9.99-1.09 3.77-1.09 6.34-2.13 2.57-1.04 5.05-1.04 1.39 0 2.52.74 1.14.75 1.88 2.13.75 1.39.75 3.37 0 2.97-2.97 5.69t-8.76 4.46q-5.8 1.73-14.21 1.73m-5.74-32.37q7.03 0 11.28-2.97 4.26-2.97 4.26-7.33 0-3.46-2.33-5.69-2.32-2.23-7.27-2.23-4.66 0-8.37 1.73-3.71 1.74-5.79 4.51-2.08 2.77-2.08 6.04 0 2.87 2.72 4.4 2.73 1.54 7.58 1.54"></path><rect width="55.74" height="61.38" x="-27.87" y="-30.69" fill="none" rx="0" ry="0" transform="translate(209.28 269.47)"></rect><path fill="#fff" d="M256.055 299.072q-3.07 0-4.85-1.44-1.78-1.44-2.87-4.8-1.49-4.95-2.23-12.53-.74-7.57-.74-18.66 0-6.83.54-13.71.55-6.88 1.44-12.57.89-5.69 1.88-8.86 1.09-3.37 2.57-4.65 1.49-1.29 3.37-1.29 1.98 0 3.17 1.33 1.19 1.34 1.88 4.71.59 3.26.94 8.02.35 4.75.35 10.19 0 7.43-.7 15.65-.69 8.21-1.83 16.13-1.14 7.92-2.72 14.56l-2.77-1.39q2.57-3.17 5.89-4.95 3.31-1.78 6.09-1.78 2.27 0 3.51 1.23 1.24 1.24 1.24 3.82 0 2.57-2.23 5.14-2.23 2.58-5.49 4.21-3.27 1.64-6.44 1.64"></path><rect width="24.85" height="78.51" x="-12.43" y="-39.26" fill="none" rx="0" ry="0" transform="translate(258.29 260.32)"></rect><path fill="#fff" d="M299.225 299.162q-3.27 0-7.28-.39-4.01-.4-7.72-1.54-3.72-1.13-6.14-3.16-2.43-2.03-2.43-5.3 0-3.37 2.13-5.05 2.13-1.68 6.98-1.68 3.37 0 7.57.89 4.21.89 8.07.89 5.75 0 8.47-1.78 2.72-1.78 2.72-4.85 0-1.88-1.04-3.37-1.04-1.48-4.11-2.97-3.07-1.48-9.2-3.27-7.03-1.88-11.39-4.2-4.36-2.33-6.34-5.6-1.98-3.26-1.98-7.72 0-5.44 1.93-9.45 1.94-4.01 5.2-6.84 3.27-2.82 7.33-4.5 4.06-1.68 8.26-2.47 4.21-.8 8.07-.8 8.52 0 13.91 2.68 5.4 2.67 5.4 7.12 0 3.17-2.03 5.15-2.03 1.98-6.19 1.98-1.78 0-4.26-.49-2.47-.5-5.44-.99-2.97-.5-6.53-.5-6.04 0-9.31 1.88-3.27 1.88-3.27 6.04 0 1.78.94 3.27.94 1.48 4.01 3.07 3.07 1.58 9.41 3.66 7.82 2.38 12.27 5.2 4.46 2.82 6.34 6.38 1.88 3.57 1.88 8.02 0 6.14-3.32 10.84-3.31 4.71-9.2 7.28-5.89 2.57-13.71 2.57"></path><rect width="51.98" height="73.16" x="-25.99" y="-36.58" fill="none" rx="0" ry="0" transform="translate(302.14 263.08)"></rect><path fill="#fff" d="M352.875 239.272h-1.98q-.29-4.36.2-8.27.5-3.91 2.13-6.33 1.63-2.43 4.7-2.43 2.77 0 4.06 1.78 1.29 1.79 1.29 4.95 0 6.24-2.38 10.7l-1.78-.2q5.35-1.88 12.08-1.88 4.26 0 6.78 1.63 2.52 1.63 2.52 5.49 0 3.67-2.97 5.55t-7.42 1.88q-2.67 0-5.69-.25-3.02-.25-5.89-.84l1.68-2.08q.89 3.76 1.73 8.56.84 4.81 1.54 9.95.69 5.15 1.09 10 .39 4.85.39 8.72 0 6.33-1.98 9.99-1.98 3.67-5.84 3.67-3.07 0-4.8-1.88t-2.48-4.81q-.74-2.92-.89-6.08-.15-3.17-.15-5.75 0-4.35.4-9.85.4-5.49 1.14-11.33.74-5.84 1.73-11.29l1.98 1.69q-5.05 2.57-12.47 2.57-4.56 0-7.03-1.68-2.48-1.69-2.48-5.25 0-3.86 2.78-5.99 2.77-2.13 7.42-2.13 3.07 0 5.79.35 2.72.34 4.8.84"></path><rect width="48.41" height="77.62" x="-24.2" y="-38.81" fill="none" rx="0" ry="0" transform="translate(356.79 261.55)"></rect><path fill="#fff" d="M431.785 299.862q-3.37 0-4.61-2.63-1.24-2.62-1.43-8.36l.99.49q-5.55 10.79-20.99 10.79-7.03 0-11.68-2.52-4.66-2.52-6.88-6.73-2.23-4.21-2.23-9.16 0-8.51 5.94-13.51t15.74-5q6.43 0 11.19 1.88 4.75 1.88 8.11 5.25l-1.68-.2q-.69-10-4.3-14.31-3.62-4.3-10.25-4.3-3.86 0-7.13 1.18-3.27 1.19-5.99 2.43-2.72 1.24-5.1 1.24-2.37 0-3.71-1.59-1.34-1.58-1.34-4.06 0-3.56 3.42-6.73 3.42-3.17 9.06-5.15 5.64-1.98 12.27-1.98 8.02 0 13.76 3.86 5.75 3.87 8.72 11.29 2.57 6.34 3.66 14.16 1.09 7.82 1.09 16.73 0 6.73-.69 10.39-.7 3.67-2.13 5.1-1.44 1.44-3.81 1.44m-21.88-11.09q3.26 0 6.63-.94t5.64-2.82q2.28-1.88 2.28-4.66 0-2.37-1.93-3.91-1.93-1.53-5.05-2.32-3.12-.79-6.68-.79-6.04 0-9.16 2.07-3.12 2.08-3.12 5.55 0 3.76 2.92 5.79 2.92 2.03 8.47 2.03"></path><rect width="53.46" height="63.26" x="-26.73" y="-31.63" fill="none" rx="0" ry="0" transform="translate(412.19 269.02)"></rect><path fill="#fff" d="M474.845 299.962q-13.66 0-20.05-7.13-6.38-7.13-6.38-19.8 0-9.8 3.81-17.38 3.81-7.57 10.99-11.88 7.18-4.3 17.18-4.3 9 0 13.71 2.92 4.7 2.92 4.7 7.47 0 2.77-1.73 4.41-1.74 1.63-5.1 1.63-1.88 0-3.81-.59-1.93-.6-4.21-1.19-2.28-.59-5.45-.59-8.21 0-12.32 4.35-4.11 4.36-4.11 12.57 0 7.83 3.96 11.34t10.79 3.51q3.37 0 5.89-.74 2.53-.74 4.75-1.48 2.23-.75 4.51-.75t3.76 1.44q1.49 1.44 1.49 4.11 0 3.07-2.48 5.84-2.47 2.77-7.43 4.5-4.94 1.74-12.47 1.74"></path><rect width="50.39" height="60.49" x="-25.2" y="-30.25" fill="none" rx="0" ry="0" transform="translate(474.11 270.22)"></rect><path fill="#fff" d="M512.065 299.862q-1.88 0-3.06-1.14-1.19-1.14-1.69-3.32-.79-3.66-1.38-10.59-.6-6.93-.6-15.35 0-10.39.75-19.99.74-9.61 1.93-15.74 1.28-6.64 3.16-9.76 1.88-3.11 4.95-3.11 2.78 0 4.26 2.52 1.49 2.52 1.49 8.66 0 6.14-.45 13.17-.44 7.03-1.43 15.05h.39q6.44-8.71 12.03-13.96 5.59-5.25 10.3-7.62 4.7-2.38 8.36-2.38 2.87 0 4.26 1.78 1.38 1.78 1.38 4.36 0 5.05-8.06 11.28-8.07 6.24-23.22 12.77l.1-1.58q9.4 4.85 16.19 10.15 6.78 5.29 10.39 10 3.61 4.7 3.61 7.87 0 2.57-1.63 4.2-1.63 1.64-4.7 1.64-3.86 0-8.57-2.92-4.7-2.92-9.75-8.76t-10.09-14.66h-.4q-.1 6.24-.74 12.13-.65 5.89-1.64 9.65-.69 2.58-2.13 4.11-1.43 1.54-4.01 1.54"></path><rect width="51.38" height="79" x="-25.69" y="-39.5" fill="none" rx="0" ry="0" transform="translate(531.52 260.86)"></rect></svg></svg>